<svg width="200" height="200" viewBox="0 0 200 200" fill="none" xmlns="http://www.w3.org/2000/svg">
  <!-- Neural Network Nodes -->
  <circle cx="40" cy="40" r="8" fill="#3B82F6" class="node input-node" />
  <circle cx="40" cy="80" r="8" fill="#3B82F6" class="node input-node" />
  <circle cx="40" cy="120" r="8" fill="#3B82F6" class="node input-node" />
  <circle cx="40" cy="160" r="8" fill="#3B82F6" class="node input-node" />
  
  <circle cx="100" cy="60" r="8" fill="#8B5CF6" class="node hidden-node" />
  <circle cx="100" cy="100" r="8" fill="#8B5CF6" class="node hidden-node" />
  <circle cx="100" cy="140" r="8" fill="#8B5CF6" class="node hidden-node" />
  
  <circle cx="160" cy="80" r="8" fill="#EC4899" class="node output-node" />
  <circle cx="160" cy="120" r="8" fill="#EC4899" class="node output-node" />
  
  <!-- Neural Network Connections -->
  <!-- Input to Hidden Layer -->
  <line x1="48" y1="40" x2="92" y2="60" stroke="#93C5FD" stroke-width="2" class="connection" />
  <line x1="48" y1="40" x2="92" y2="100" stroke="#93C5FD" stroke-width="2" class="connection" />
  <line x1="48" y1="40" x2="92" y2="140" stroke="#93C5FD" stroke-width="2" class="connection" />
  
  <line x1="48" y1="80" x2="92" y2="60" stroke="#93C5FD" stroke-width="2" class="connection" />
  <line x1="48" y1="80" x2="92" y2="100" stroke="#93C5FD" stroke-width="2" class="connection" />
  <line x1="48" y1="80" x2="92" y2="140" stroke="#93C5FD" stroke-width="2" class="connection" />
  
  <line x1="48" y1="120" x2="92" y2="60" stroke="#93C5FD" stroke-width="2" class="connection" />
  <line x1="48" y1="120" x2="92" y2="100" stroke="#93C5FD" stroke-width="2" class="connection" />
  <line x1="48" y1="120" x2="92" y2="140" stroke="#93C5FD" stroke-width="2" class="connection" />
  
  <line x1="48" y1="160" x2="92" y2="60" stroke="#93C5FD" stroke-width="2" class="connection" />
  <line x1="48" y1="160" x2="92" y2="100" stroke="#93C5FD" stroke-width="2" class="connection" />
  <line x1="48" y1="160" x2="92" y2="140" stroke="#93C5FD" stroke-width="2" class="connection" />
  
  <!-- Hidden to Output Layer -->
  <line x1="108" y1="60" x2="152" y2="80" stroke="#C4B5FD" stroke-width="2" class="connection" />
  <line x1="108" y1="60" x2="152" y2="120" stroke="#C4B5FD" stroke-width="2" class="connection" />
  
  <line x1="108" y1="100" x2="152" y2="80" stroke="#C4B5FD" stroke-width="2" class="connection" />
  <line x1="108" y1="100" x2="152" y2="120" stroke="#C4B5FD" stroke-width="2" class="connection" />
  
  <line x1="108" y1="140" x2="152" y2="80" stroke="#C4B5FD" stroke-width="2" class="connection" />
  <line x1="108" y1="140" x2="152" y2="120" stroke="#C4B5FD" stroke-width="2" class="connection" />
  
  <!-- Pulse Animation Circles -->
  <circle cx="70" cy="70" r="3" fill="#FFFFFF" class="pulse pulse1" />
  <circle cx="130" cy="90" r="3" fill="#FFFFFF" class="pulse pulse2" />
  <circle cx="60" cy="130" r="3" fill="#FFFFFF" class="pulse pulse3" />
</svg>