<svg width="200" height="200" viewBox="0 0 200 200" fill="none" xmlns="http://www.w3.org/2000/svg">
  <!-- Particles -->
  <circle cx="20" cy="30" r="3" fill="#3B82F6" class="particle" />
  <circle cx="50" cy="70" r="4" fill="#8B5CF6" class="particle" />
  <circle cx="80" cy="40" r="2" fill="#10B981" class="particle" />
  <circle cx="120" cy="60" r="3" fill="#EC4899" class="particle" />
  <circle cx="150" cy="30" r="2" fill="#3B82F6" class="particle" />
  <circle cx="180" cy="80" r="4" fill="#8B5CF6" class="particle" />
  <circle cx="30" cy="100" r="3" fill="#10B981" class="particle" />
  <circle cx="70" cy="130" r="2" fill="#EC4899" class="particle" />
  <circle cx="100" cy="160" r="4" fill="#3B82F6" class="particle" />
  <circle cx="140" cy="120" r="3" fill="#8B5CF6" class="particle" />
  <circle cx="170" cy="150" r="2" fill="#10B981" class="particle" />
  <circle cx="60" cy="180" r="3" fill="#EC4899" class="particle" />
  
  <!-- Connection Lines -->
  <line x1="20" y1="30" x2="50" y2="70" stroke="#3B82F6" stroke-width="1" opacity="0.3" class="connection-line" />
  <line x1="50" y1="70" x2="80" y2="40" stroke="#8B5CF6" stroke-width="1" opacity="0.3" class="connection-line" />
  <line x1="80" y1="40" x2="120" y2="60" stroke="#10B981" stroke-width="1" opacity="0.3" class="connection-line" />
  <line x1="120" y1="60" x2="150" y2="30" stroke="#EC4899" stroke-width="1" opacity="0.3" class="connection-line" />
  <line x1="150" y1="30" x2="180" y2="80" stroke="#3B82F6" stroke-width="1" opacity="0.3" class="connection-line" />
  <line x1="30" y1="100" x2="70" y2="130" stroke="#8B5CF6" stroke-width="1" opacity="0.3" class="connection-line" />
  <line x1="70" y1="130" x2="100" y2="160" stroke="#10B981" stroke-width="1" opacity="0.3" class="connection-line" />
  <line x1="100" y1="160" x2="140" y2="120" stroke="#EC4899" stroke-width="1" opacity="0.3" class="connection-line" />
  <line x1="140" y1="120" x2="170" y2="150" stroke="#3B82F6" stroke-width="1" opacity="0.3" class="connection-line" />
  <line x1="170" y1="150" x2="60" y2="180" stroke="#8B5CF6" stroke-width="1" opacity="0.3" class="connection-line" />
  
  <!-- Cross Connections -->
  <line x1="20" y1="30" x2="80" y2="40" stroke="#10B981" stroke-width="1" opacity="0.2" class="connection-line" />
  <line x1="50" y1="70" x2="120" y2="60" stroke="#EC4899" stroke-width="1" opacity="0.2" class="connection-line" />
  <line x1="30" y1="100" x2="100" y2="160" stroke="#3B82F6" stroke-width="1" opacity="0.2" class="connection-line" />
  <line x1="70" y1="130" x2="170" y2="150" stroke="#8B5CF6" stroke-width="1" opacity="0.2" class="connection-line" />
</svg>